<svg
        xmlns="http://www.w3.org/2000/svg"
        width="32px"
        height="32px"
        viewBox="0 0 32 32"
      >
        <title>Group</title>
        <g
          id="Page-1"
          stroke="none"
          stroke-width="1"
          fill="none"
          fill-rule="evenodd"
        >
          <g id="Group" fill-rule="nonzero">
            <g id="Ig" fill="#181818">
              <path
                d="M0,8.37013986 C0,3.76650822 3.76650822,0 8.37013986,0 L23.6287659,0 C28.2323975,0 31.9989057,3.76650822 31.9989057,8.37013986 L32,23.6298601 C31.9989057,28.2334918 28.2323975,32 23.6287659,32 L8.37013986,32 C3.76650822,32 0,28.2334918 0,23.6287659 L0,8.37013986 Z"
                id="Fill-120-Copy"
              ></path>
            </g>
            <g
              id="icons8-discord"
              transform="translate(5.000000, 7.000000)"
              fill="#FFFFFF"
            >
              <path
                d="M8.1367188,0.8691406 C8.1217187,0.8691406 8.1067969,0.8700938 8.0917969,0.8710938 C7.9647969,0.8810937 4.9534375,1.1403594 3.0234375,2.6933594 C2.0154375,3.6253594 0,9.073203 0,13.783203 C0,13.866203 0.0215,13.946531 0.0625,14.019531 C1.4535,16.462531 5.2473281,17.102859 6.1113281,17.130859 L6.1269531,17.130859 C6.2799531,17.130859 6.4236719,17.057594 6.5136719,16.933594 L7.3886719,15.732422 C5.0296719,15.122422 3.8248594,14.086391 3.7558594,14.025391 C3.5578594,13.850391 3.5378906,13.549563 3.7128906,13.351562 C3.8068906,13.244563 3.9383125,13.189453 4.0703125,13.189453 C4.1823125,13.189453 4.2957188,13.228594 4.3867188,13.308594 C4.4157187,13.334594 6.6340469,15.216797 10.998047,15.216797 C15.370047,15.216797 17.589328,13.325641 17.611328,13.306641 C17.702328,13.227641 17.815734,13.189453 17.927734,13.189453 C18.059734,13.189453 18.190156,13.243562 18.285156,13.351562 C18.459156,13.549563 18.441141,13.851391 18.244141,14.025391 C18.174141,14.087391 16.968375,15.120469 14.609375,15.730469 L15.484375,16.933594 C15.574375,17.057594 15.718094,17.130859 15.871094,17.130859 L15.886719,17.130859 C16.751719,17.103859 20.5465,16.463531 21.9375,14.019531 C21.9785,13.947531 22,13.866203 22,13.783203 C22,9.073203 19.984172,3.624875 18.951172,2.671875 C17.047172,1.140875 14.036203,0.8820937 13.908203,0.8710938 C13.895203,0.8700938 13.880188,0.8691406 13.867188,0.8691406 C13.681188,0.8691406 13.510594,0.9793906 13.433594,1.1503906 C13.427594,1.1623906 13.362062,1.3138281 13.289062,1.5488281 C14.548063,1.7608281 16.094141,2.1895937 17.494141,3.0585938 C17.718141,3.1975938 17.787437,3.4917969 17.648438,3.7167969 C17.558438,3.8627969 17.402188,3.9433594 17.242188,3.9433594 C17.156188,3.9433594 17.069234,3.9200937 16.990234,3.8710938 C14.584234,2.3800938 11.578,2.3046875 11,2.3046875 C10.422,2.3046875 7.4157187,2.3810469 5.0117188,3.8730469 C4.9327188,3.9210469 4.8457656,3.9433594 4.7597656,3.9433594 C4.5997656,3.9433594 4.4425625,3.86475 4.3515625,3.71875 C4.2115625,3.49375 4.2818594,3.1985938 4.5058594,3.0585938 C5.9058594,2.1905937 7.4528906,1.7627812 8.7128906,1.5507812 C8.6388906,1.3147813 8.5714062,1.1643437 8.5664062,1.1523438 C8.4894063,0.9813438 8.3217188,0.8691406 8.1367188,0.8691406 Z M11,4.3046875 C11.296,4.3046875 13.950594,4.3403125 15.933594,5.5703125 C16.326594,5.8143125 16.777234,5.9453125 17.240234,5.9453125 C17.633234,5.9453125 18.010656,5.8555 18.347656,5.6875 C18.964656,7.2405 19.690828,9.686219 19.923828,12.199219 C19.883828,12.143219 19.840922,12.089109 19.794922,12.037109 C19.324922,11.498109 18.644687,11.191406 17.929688,11.191406 C17.332687,11.191406 16.754078,11.405437 16.330078,11.773438 C16.257078,11.832437 14.505,13.21875 11,13.21875 C7.496,13.21875 5.7450313,11.834687 5.7070312,11.8046875 C5.2540312,11.407687 4.6742656,11.189453 4.0722656,11.189453 C3.3612656,11.189453 2.6838438,11.494391 2.2148438,12.025391 C2.1658438,12.080391 2.1201719,12.138266 2.0761719,12.197266 C2.3091719,9.686266 3.0344375,7.235594 3.6484375,5.6835938 C3.9864375,5.8525938 4.3657656,5.9433594 4.7597656,5.9433594 C5.2217656,5.9433594 5.6724531,5.8143125 6.0644531,5.5703125 C8.0494531,4.3393125 10.704,4.3046875 11,4.3046875 Z M7.890625,7.044922 C6.966625,7.044922 6.2167969,7.901031 6.2167969,8.957031 C6.2167969,10.013031 6.965625,10.869141 7.890625,10.869141 C8.815625,10.869141 9.564453,10.013031 9.564453,8.957031 C9.564453,7.900031 8.815625,7.044922 7.890625,7.044922 Z M14.109375,7.044922 C13.185375,7.044922 12.435547,7.901031 12.435547,8.957031 C12.435547,10.013031 13.184375,10.869141 14.109375,10.869141 C15.034375,10.869141 15.783203,10.013031 15.783203,8.957031 C15.783203,7.900031 15.033375,7.044922 14.109375,7.044922 Z"
                id="Shape"
              ></path>
            </g>
          </g>
        </g>
      </svg>