<svg xmlns="http://www.w3.org/2000/svg" xmlns:xlink="http://www.w3.org/1999/xlink" width="112px" height="20px" viewBox="0 0 112 20"><title>Logos / Logo-dark</title><g id="desktop" stroke="none" stroke-width="1" fill="none" fill-rule="evenodd"><g id="landing" transform="translate(-30.000000, -30.000000)" fill="#181818"><g id="Combined-Shape" transform="translate(30.000000, 30.000000)"><path d="M7.10453333,0 C8.45026667,0 9.65573333,0.289333333 10.7208,0.867733333 C11.7852,1.44626667 12.6117333,2.26733333 13.1997333,3.3304 C13.5606667,3.98346667 13.8096,4.69653333 13.9489333,5.46826667 C14.8969333,5.58293333 15.7593333,5.86 16.5625333,6.30866667 C17.6448,6.9124 18.4881333,7.7672 19.0926667,8.87333333 C19.6977333,9.9792 20,11.2552 20,12.7013333 C20,14.1645333 19.702,15.4489333 19.1054667,16.5548 C18.5093333,17.6608 17.6744,18.5112 16.6009333,19.1069333 C15.5277333,19.7022667 14.2925333,20 12.8952,20 C11.5497333,20 10.3442667,19.7108 9.27906667,19.1324 C8.21466667,18.554 7.388,17.7328 6.80026667,16.6698667 C6.43946667,16.0168 6.19026667,15.3041333 6.05093333,14.5324 C5.1028,14.4177333 4.24053333,14.1402667 3.4372,13.6916 C2.3552,13.0878667 1.51173333,12.2329333 0.907066667,11.1268 C0.302133333,10.0210667 0,8.74493333 0,7.29893333 C0,5.83573333 0.297866667,4.55133333 0.894533333,3.44533333 C1.49053333,2.33933333 2.32546667,1.48893333 3.3988,0.893333333 C4.47226667,0.298 5.70733333,0 7.10453333,0 Z M16.3454667,14.0284 L9.62413333,14.0284 C9.64133333,14.9472 9.9736,15.6828 10.6209333,16.236 C11.2685333,16.7886667 12.0609333,17.0654667 12.9976,17.0654667 C13.8837333,17.0654667 14.6290667,16.7974667 15.2337333,16.2614667 C15.8388,15.7256 16.2093333,14.9812 16.3454667,14.0284 L16.3454667,14.0284 Z M32.2185463,3.94038584 C33.6873117,3.94038584 34.8592468,4.30747505 35.7348643,5.04216652 C36.6100972,5.77698625 37.0924626,6.76756276 37.1814476,8.01415256 L34.199296,8.01415256 C34.1548035,7.52444375 33.9505483,7.13490849 33.5872998,6.84554677 C33.2235383,6.55605678 32.737711,6.41124765 32.1295613,6.41124765 C31.5655195,6.41124765 31.1314932,6.51539735 30.8276107,6.72305543 C30.5234717,6.93097004 30.371274,7.22046003 30.371274,7.59126887 C30.371274,8.00696982 30.5791194,8.32236897 30.9945537,8.53733805 C31.4098598,8.75269192 32.0551934,8.9715089 32.9306828,9.19417377 C33.8209175,9.41671038 34.5552361,9.64707105 35.1340232,9.88410139 C35.7126822,10.1219013 36.2133831,10.4891188 36.6362542,10.9862669 C37.0588689,11.4836715 37.277613,12.1403789 37.2926148,12.9565175 C37.2926148,13.6687629 37.0957964,14.3071287 36.7029289,14.8708454 C36.3095485,15.4352034 35.7458913,15.876557 35.0115727,16.1955475 C34.2772541,16.514538 33.4203567,16.6742256 32.4412652,16.6742256 C31.4321702,16.6742256 30.5271901,16.4922202 29.7259404,16.1287224 C28.924819,15.7653528 28.2907688,15.2716678 27.8231487,14.6483088 C27.3560416,14.0249498 27.1001135,13.3348939 27.0553646,12.5778846 L30.1934323,12.5778846 C30.2524137,13.0530997 30.4861596,13.4462263 30.8942853,13.7579058 C31.3022828,14.0694571 31.8104205,14.2252968 32.4189549,14.2252968 C33.0119745,14.2252968 33.4758762,14.1067817 33.8097623,13.86911 C34.1435201,13.6319514 34.3104632,13.3275829 34.3104632,12.9565175 C34.3104632,12.5556951 34.1064644,12.2553027 33.6984669,12.0546991 C33.2903412,11.8544803 32.6412892,11.6356633 31.7513109,11.3979917 C30.8312008,11.175455 30.0784185,10.9456074 29.4923227,10.7079358 C28.9060988,10.4707772 28.4019359,10.1067663 27.979193,9.61705746 C27.5560655,9.1272204 27.3447582,8.46717809 27.3447582,7.63577619 C27.3447582,6.9534161 27.5413201,6.3299288 27.9345723,5.76569909 C28.327568,5.20198244 28.8913534,4.75665269 29.6260567,4.42996638 C30.3602471,4.10379313 31.2245812,3.94038584 32.2185463,3.94038584 Z M66.2007523,3.94037301 C67.3726873,3.94037301 68.4224283,4.19279494 69.3498469,4.69712575 C70.2768809,5.20196961 70.9967106,5.91819118 71.5086949,6.84553394 C72.0204228,7.77313323 72.2762226,8.83784585 72.2762226,10.0400566 C72.2762226,10.4853863 72.2463472,10.8859522 72.1873658,11.2421391 L63.1742364,11.2421391 C63.2483478,12.1327986 63.5599235,12.830422 64.1089636,13.334881 C64.6577472,13.8395966 65.3330844,14.091762 66.1340776,14.091762 C67.2911391,14.091762 68.1146992,13.5947422 68.6041167,12.6001896 L71.9649033,12.6001896 C71.6085786,13.7877783 70.9261893,14.7636046 69.9173507,15.5276683 C68.9081274,16.2923733 67.6696459,16.6742128 66.2007523,16.6742128 C65.0136872,16.6742128 63.9492009,16.4108885 63.0072933,15.8838551 C62.0648729,15.3572065 61.3305543,14.6114844 60.8039529,13.6465606 C60.2772232,12.6818932 60.0138583,11.5688254 60.0138583,10.3072288 C60.0138583,9.03101019 60.2733766,7.91063135 60.7929259,6.94570748 C61.3120906,5.98104014 62.0392288,5.23916593 62.9738278,4.71944354 C63.908555,4.20010595 64.9840683,3.94037301 66.2007523,3.94037301 Z M81.0443997,3.94037301 C82.2163347,3.94037301 83.2660757,4.19279494 84.1934943,4.69712575 C85.1205283,5.20196961 85.840358,5.91819118 86.3523423,6.84553394 C86.8640702,7.77313323 87.11987,8.83784585 87.11987,10.0400566 C87.11987,10.4853863 87.0899946,10.8859522 87.0310132,11.2421391 L78.0178838,11.2421391 C78.0919952,12.1327986 78.4035709,12.830422 78.952611,13.334881 C79.5013946,13.8395966 80.1767318,14.091762 80.977725,14.091762 C82.1347865,14.091762 82.9583466,13.5947422 83.4478923,12.6001896 L86.8085507,12.6001896 C86.452226,13.7877783 85.7698367,14.7636046 84.7609981,15.5276683 C83.7517748,16.2923733 82.5134215,16.6742128 81.0443997,16.6742128 C79.8573346,16.6742128 78.7928483,16.4108885 77.8509407,15.8838551 C76.9085203,15.3572065 76.1742017,14.6114844 75.6476002,13.6465606 C75.1208706,12.6818932 74.8575057,11.5688254 74.8575057,10.3072288 C74.8575057,9.03101019 75.117024,7.91063135 75.6365733,6.94570748 C76.155738,5.98104014 76.8830044,5.23916593 77.8174752,4.71944354 C78.7522024,4.20010595 79.8277157,3.94037301 81.0443997,3.94037301 Z M44.592129,1.0907757 L44.592129,4.14048922 L47.3518181,4.14048922 L47.3518181,6.70075047 L44.592129,6.70075047 L44.592129,12.6670403 C44.592129,13.082613 44.6922692,13.3832619 44.8926778,13.5686022 C45.0928299,13.7543273 45.4301779,13.8469333 45.9051066,13.8469333 L47.3518181,13.8469333 L47.3518181,16.4737631 L45.3933787,16.4737631 C42.7674235,16.4737631 41.4543177,15.1975445 41.4543177,12.6447225 L41.4543177,6.70075047 L39.9852959,6.70075047 L39.9852959,4.14048922 L41.4543177,4.14048922 L41.4543177,1.0907757 L44.592129,1.0907757 Z M57.6108273,3.96261385 L57.6108273,7.23499225 L56.7875237,7.23499225 C55.8081758,7.23499225 55.0700105,7.46535291 54.5731562,7.92530466 C54.0756608,8.38538467 53.8275542,9.18690125 53.8275542,10.3294696 L53.8275542,16.4737888 L50.7117969,16.4737888 L50.7117969,4.14051487 L53.8275542,4.14051487 L53.8275542,6.05522756 C54.228115,5.40223973 54.7511263,4.8903414 55.3964599,4.51914777 C56.0417935,4.14821066 56.7797022,3.96261385 57.6108273,3.96261385 Z M94.1300547,1.0907757 L94.1300547,4.14048922 L96.8894874,4.14048922 L96.8894874,6.70075047 L94.1300547,6.70075047 L94.1300547,12.6670403 C94.1300547,13.082613 94.2301949,13.3832619 94.4304753,13.5686022 C94.6307556,13.7543273 94.9678472,13.8469333 95.4430323,13.8469333 L96.8894874,13.8469333 L96.8894874,16.4737631 L94.931048,16.4737631 C92.3050928,16.4737631 90.991987,15.1975445 90.991987,12.6447225 L90.991987,6.70075047 L89.5232216,6.70075047 L89.5232216,4.14048922 L90.991987,4.14048922 L90.991987,1.0907757 L94.1300547,1.0907757 Z M103.3653,0 L103.3653,5.67679989 C103.765733,5.14232723 104.300028,4.72329144 104.967672,4.41879466 C105.635187,4.11481093 106.376943,3.96269081 107.193194,3.96269081 C108.127921,3.96269081 108.958662,4.16662926 109.685544,4.57476268 C110.412554,4.98315263 110.979929,5.58419387 111.388055,6.37801467 C111.796053,7.17209199 112.000051,8.12547217 112.000051,9.23866827 L112.000051,16.4738657 L108.88455,16.4738657 L108.88455,9.66168022 C108.88455,8.68200609 108.639649,7.92910125 108.150104,7.4019396 C107.66043,6.87541926 106.992786,6.61183843 106.147172,6.61183843 C105.286556,6.61183843 104.607629,6.87541926 104.110774,7.4019396 C103.613792,7.92910125 103.3653,8.68200609 103.3653,9.66168022 L103.3653,16.4738657 L100.249671,16.4738657 L100.249671,0 L103.3653,0 Z M13.4338667,8.37066667 L3.6288,8.37066667 C3.714,9.39146667 4.07173333,10.1913333 4.70226667,10.7696 C5.2208,11.2457333 5.86226667,11.5453333 6.58666667,11.6296 L6.58666667,11.6296 L16.3710667,11.6296 C16.2858667,10.6088 15.9281333,9.80893333 15.2976,9.23066667 C14.784,8.75906667 14.1497333,8.45773333 13.4338667,8.37066667 L13.4338667,8.37066667 Z M66.1118955,6.500506 C65.3401365,6.500506 64.6909563,6.7342015 64.1643548,7.20159252 C63.6376252,7.66924005 63.3150225,8.31863651 63.1964185,9.14965363 L69.0494264,9.14965363 C69.0344246,8.34813704 68.745031,7.70643637 68.1813738,7.22391031 C67.6175884,6.74189729 66.9273776,6.500506 66.1118955,6.500506 Z M80.9555429,6.500506 C80.1837839,6.500506 79.5346037,6.7342015 79.0080022,7.20159252 C78.4812725,7.66924005 78.1586699,8.31863651 78.0401941,9.14965363 L83.8930737,9.14965363 C83.878072,8.34813704 83.5886784,7.70643637 83.0250212,7.22391031 C82.4612358,6.74189729 81.7711533,6.500506 80.9555429,6.500506 Z M7.00226667,2.9348 C6.11626667,2.9348 5.3708,3.2028 4.76613333,3.73866667 C4.1612,4.27466667 3.79053333,5.01906667 3.6544,5.97173333 L3.6544,5.97173333 L10.3757333,5.97173333 C10.3585333,5.05306667 10.0262667,4.31733333 9.37893333,3.76426667 C8.7312,3.21146667 7.93906667,2.9348 7.00226667,2.9348 Z"></path></g></g></g></svg>