<svg xmlns="http://www.w3.org/2000/svg" xmlns:xlink="http://www.w3.org/1999/xlink" width="168px" height="30px" viewBox="0 0 168 30"><title>Logos / Logo-footer</title><g id="desktop" stroke="none" stroke-width="1" fill="#7a7a7a" fill-rule="evenodd" opacity="1"><g id="landing" transform="translate(-636.000000, -11038.000000)" fill="#7a7a7a"><g id="footer" transform="translate(363.000000, 10786.000000)"><g id="Group-2" transform="translate(0.000000, 252.000000)"><g id="Logos-/-Logo-dark" transform="translate(273.000000, 0.000000)"><path d="M10.6568,0 C12.6754,0 14.4836,0.434 16.0812,1.3016 C17.6778,2.1694 18.9176,3.401 19.7996,4.9956 C20.341,5.9752 20.7144,7.0448 20.9234,8.2024 C22.3454,8.3744 23.639,8.79 24.8438,9.463 C26.4672,10.3686 27.7322,11.6508 28.639,13.31 C29.5466,14.9688 30,16.8828 30,19.052 C30,21.2468 29.553,23.1734 28.6582,24.8322 C27.764,26.4912 26.5116,27.7668 24.9014,28.6604 C23.2916,29.5534 21.4388,30 19.3428,30 C17.3246,30 15.5164,29.5662 13.9186,28.6986 C12.322,27.831 11.082,26.5992 10.2004,25.0048 C9.6592,24.0252 9.2854,22.9562 9.0764,21.7986 C7.6542,21.6266 6.3608,21.2104 5.1558,20.5374 C3.5328,19.6318 2.2676,18.3494 1.3606,16.6902 C0.4532,15.0316 0,13.1174 0,10.9484 C0,8.7536 0.4468,6.827 1.3418,5.168 C2.2358,3.509 3.4882,2.2334 5.0982,1.34 C6.7084,0.447 8.561,0 10.6568,0 Z M24.5182,21.0426 L14.4362,21.0426 C14.462,22.4208 14.9604,23.5242 15.9314,24.354 C16.9028,25.183 18.0914,25.5982 19.4964,25.5982 C20.8256,25.5982 21.9436,25.1962 22.8506,24.3922 C23.7582,23.5884 24.314,22.4718 24.5182,21.0426 L24.5182,21.0426 Z M48.3278194,5.91057876 C50.5309676,5.91057876 52.2888702,6.46121257 53.6022965,7.56324978 C54.9151459,8.66547938 55.638694,10.1513441 55.7721715,12.0212288 L51.2989441,12.0212288 C51.2322053,11.2866656 50.9258225,10.7023627 50.3809496,10.2683202 C49.8353075,9.83408517 49.1065664,9.61687148 48.1943419,9.61687148 C47.3482792,9.61687148 46.6972398,9.77309603 46.241416,10.0845832 C45.7852076,10.3964551 45.5569111,10.83069 45.5569111,11.3869033 C45.5569111,12.0104547 45.8686791,12.4835535 46.4918306,12.8060071 C47.1147897,13.1290379 48.0827901,13.4572634 49.3960241,13.7912607 C50.7313762,14.1250656 51.8328541,14.4706066 52.7010349,14.8261521 C53.5690233,15.182852 54.3200747,15.7336782 54.9543813,16.4794003 C55.5883033,17.2255072 55.9164195,18.2105684 55.9389222,19.4347763 C55.9389222,20.5031444 55.6436946,21.4606931 55.0543933,22.3062681 C54.4643227,23.1528051 53.618837,23.8148354 52.517359,24.2933212 C51.4158811,24.771807 50.1305351,25.0113385 48.6618979,25.0113385 C47.1482553,25.0113385 45.7907852,24.7383303 44.5889106,24.1930835 C43.3872284,23.6480292 42.4361531,22.9075017 41.7347231,21.9724632 C41.0340623,21.0374246 40.6501703,20.0023408 40.5830469,18.8668269 L45.2901484,18.8668269 C45.3786205,19.5796495 45.7292394,20.1693395 46.341428,20.6368587 C46.9534243,21.1041856 47.7156308,21.3379452 48.6284323,21.3379452 C49.5179618,21.3379452 50.2138143,21.1601725 50.7146434,20.803665 C51.2152802,20.4479271 51.4656948,19.9913743 51.4656948,19.4347763 C51.4656948,18.8335426 51.1596966,18.3829541 50.5477004,18.0820487 C49.9355117,17.7817204 48.9619337,17.453495 47.6269664,17.0969875 C46.2468013,16.7631826 45.1176277,16.4184112 44.2384841,16.0619037 C43.3591482,15.7061657 42.6029039,15.1601494 41.9687895,14.4255862 C41.3340982,13.6908306 41.0171372,12.7007671 41.0171372,11.4536643 C41.0171372,10.4301241 41.3119802,9.4948932 41.9018585,8.64854864 C42.491352,7.80297365 43.3370301,7.13497904 44.439085,6.64494957 C45.5403706,6.15568969 46.8368719,5.91057876 48.3278194,5.91057876 Z M99.3011284,5.91055952 C101.059031,5.91055952 102.633642,6.28919242 104.02477,7.04568863 C105.415321,7.80295441 106.495066,8.87728677 107.263042,10.2683009 C108.030634,11.6596998 108.414334,13.2567688 108.414334,15.0600849 C108.414334,15.7280795 108.369521,16.3289283 108.281049,16.8632086 L94.7613546,16.8632086 C94.8725217,18.1991978 95.3398853,19.245633 96.1634454,20.0023216 C96.9866208,20.759395 97.9996266,21.1376431 99.2011164,21.1376431 C100.936709,21.1376431 102.172049,20.3921134 102.906175,18.9002844 L107.947355,18.9002844 C107.412868,20.6816675 106.389284,22.1454068 104.876026,23.2915024 C103.362191,24.43856 101.504469,25.0113192 99.3011284,25.0113192 C97.5205308,25.0113192 95.9238013,24.6163328 94.51094,23.8257827 C93.0973094,23.0358098 91.9958315,21.9172266 91.2059293,20.4698408 C90.4158348,19.0228398 90.0207875,17.3532381 90.0207875,15.4608432 C90.0207875,13.5465153 90.4100648,11.865947 91.1893888,10.4185612 C91.9681358,8.97156021 93.0588432,7.8587489 94.4607417,7.07916531 C95.8628325,6.30015892 97.4761024,5.91055952 99.3011284,5.91055952 Z M121.566599,5.91055952 C123.324502,5.91055952 124.899114,6.28919242 126.290241,7.04568863 C127.680792,7.80295441 128.760537,8.87728677 129.528513,10.2683009 C130.296105,11.6596998 130.679805,13.2567688 130.679805,15.0600849 C130.679805,15.7280795 130.634992,16.3289283 130.54652,16.8632086 L117.026826,16.8632086 C117.137993,18.1991978 117.605356,19.245633 118.428916,20.0023216 C119.252092,20.759395 120.265098,21.1376431 121.466588,21.1376431 C123.20218,21.1376431 124.43752,20.3921134 125.171838,18.9002844 L130.212826,18.9002844 C129.678339,20.6816675 128.654755,22.1454068 127.141497,23.2915024 C125.627662,24.43856 123.770132,25.0113192 121.566599,25.0113192 C119.786002,25.0113192 118.189272,24.6163328 116.776411,23.8257827 C115.36278,23.0358098 114.261303,21.9172266 113.4714,20.4698408 C112.681306,19.0228398 112.286259,17.3532381 112.286259,15.4608432 C112.286259,13.5465153 112.675536,11.865947 113.45486,10.4185612 C114.233607,8.97156021 115.324507,7.8587489 116.726213,7.07916531 C118.128304,6.30015892 119.741573,5.91055952 121.566599,5.91055952 Z M66.8881935,1.63616355 L66.8881935,6.21073383 L71.0277271,6.21073383 L71.0277271,10.0511257 L66.8881935,10.0511257 L66.8881935,19.0005605 C66.8881935,19.6239195 67.0384037,20.0748929 67.3390166,20.3529033 C67.6392449,20.6314909 68.1452669,20.7703999 68.8576598,20.7703999 L71.0277271,20.7703999 L71.0277271,24.7106447 L68.090068,24.7106447 C64.1511353,24.7106447 62.1814766,22.7963168 62.1814766,18.9670838 L62.1814766,10.0511257 L59.9779438,10.0511257 L59.9779438,6.21073383 L62.1814766,6.21073383 L62.1814766,1.63616355 L66.8881935,1.63616355 Z M86.416241,5.94392077 L86.416241,10.8524884 L85.1812855,10.8524884 C83.7122637,10.8524884 82.6050158,11.1980294 81.8597344,11.887957 C81.1134913,12.578077 80.7413314,13.7803519 80.7413314,15.4942044 L80.7413314,24.7106832 L76.0676954,24.7106832 L76.0676954,6.21077231 L80.7413314,6.21077231 L80.7413314,9.08284134 C81.3421725,8.1033596 82.1266894,7.3355121 83.0946898,6.77872165 C84.0626902,6.222316 85.1695534,5.94392077 86.416241,5.94392077 Z M141.195082,1.63616355 L141.195082,6.21073383 L145.334231,6.21073383 L145.334231,10.0511257 L141.195082,10.0511257 L141.195082,19.0005605 C141.195082,19.6239195 141.345292,20.0748929 141.645713,20.3529033 C141.946133,20.6314909 142.451771,20.7703999 143.164548,20.7703999 L145.334231,20.7703999 L145.334231,24.7106447 L142.396572,24.7106447 C138.457639,24.7106447 136.487981,22.7963168 136.487981,18.9670838 L136.487981,10.0511257 L134.284832,10.0511257 L134.284832,6.21073383 L136.487981,6.21073383 L136.487981,1.63616355 L141.195082,1.63616355 Z M155.047951,0 L155.047951,8.51519983 C155.648599,7.71349085 156.450041,7.08493716 157.451507,6.62819199 C158.452781,6.1722164 159.565414,5.94403621 160.789791,5.94403621 C162.191882,5.94403621 163.437993,6.24994388 164.528315,6.86214402 C165.618831,7.47472895 166.469894,8.37629081 167.082083,9.567022 C167.694079,10.758138 168.000077,12.1882083 168.000077,13.8580024 L168.000077,24.7107986 L163.326826,24.7107986 L163.326826,14.4925203 C163.326826,13.0230091 162.959474,11.8936519 162.225155,11.1029094 C161.490644,10.3131289 160.489178,9.91775765 159.220758,9.91775765 C157.929834,9.91775765 156.911443,10.3131289 156.166161,11.1029094 C155.420688,11.8936519 155.047951,13.0230091 155.047951,14.4925203 L155.047951,24.7107986 L150.374507,24.7107986 L150.374507,0 L155.047951,0 Z M20.1508,12.556 L5.4432,12.556 C5.571,14.0872 6.1076,15.287 7.0534,16.1544 C7.8312,16.8686 8.7934,17.318 9.88,17.4444 L9.88,17.4444 L24.5566,17.4444 C24.4288,15.9132 23.8922,14.7134 22.9464,13.846 C22.176,13.1386 21.2246,12.6866 20.1508,12.556 L20.1508,12.556 Z M99.1678432,9.750759 C98.0102047,9.750759 97.0364344,10.1013023 96.2465322,10.8023888 C95.4564377,11.5038601 94.9725337,12.4779548 94.7946278,13.7244804 L103.57414,13.7244804 C103.551637,12.5222056 103.117546,11.5596546 102.272061,10.8358655 C101.426383,10.1128459 100.391066,9.750759 99.1678432,9.750759 Z M121.433314,9.750759 C120.275676,9.750759 119.301906,10.1013023 118.512003,10.8023888 C117.721909,11.5038601 117.238005,12.4779548 117.060291,13.7244804 L125.839611,13.7244804 C125.817108,12.5222056 125.383018,11.5596546 124.537532,10.8358655 C123.691854,10.1128459 122.65673,9.750759 121.433314,9.750759 Z M10.5034,4.4022 C9.1744,4.4022 8.0562,4.8042 7.1492,5.608 C6.2418,6.412 5.6858,7.5286 5.4816,8.9576 L5.4816,8.9576 L15.5636,8.9576 C15.5378,7.5796 15.0394,6.476 14.0684,5.6464 C13.0968,4.8172 11.9086,4.4022 10.5034,4.4022 Z" id="Combined-Shape"></path></g></g></g></g></g></svg>