<svg
        xmlns="http://www.w3.org/2000/svg"
        width="32px"
        height="32px"
        viewBox="0 0 32 32"
      >
        <title>social logos / tw</title>
        <g
          id="desktop"
          stroke="none"
          stroke-width="1"
          fill="none"
          fill-rule="evenodd"
        >
          <g id="landing" transform="translate(-791.000000, -10786.000000)">
            <g id="footer" transform="translate(363.000000, 10786.000000)">
              <g id="social_icons" transform="translate(80.000000, 0.000000)">
                <g id="tw" transform="translate(348.000000, 0.000000)">
                  <path
                    d="M0,8.37013986 C0,3.76650822 3.76650822,0 8.37013986,0 L23.6287659,0 C28.2323975,0 31.9989057,3.76650822 31.9989057,8.37013986 L32,23.6298601 C31.9989057,28.2334918 28.2323975,32 23.6287659,32 L8.37013986,32 C3.76650822,32 0,28.2334918 0,23.6287659 L0,8.37013986 Z"
                    id="Fill-120-Copy"
                    fill="#181818"
                  ></path>
                  <path
                    d="M24.6289368,10.5769499 C24.0741374,10.8275398 23.4624355,10.9796445 22.8649591,11.0803182 C23.1483774,11.0321699 23.5642034,10.5189531 23.7327224,10.3110401 C23.9865951,9.99369918 24.1988852,9.63258712 24.3181616,9.2430238 L24.3137845,9.15110437 L24.2196765,9.15876432 C23.5532606,9.51659355 22.8627706,9.77484339 22.1274151,9.95868225 L21.9829703,9.92147677 L21.8002257,9.73435506 C21.491639,9.47172811 21.1600725,9.26490938 20.7869234,9.11280461 C20.2966864,8.91255156 19.7604897,8.82829207 19.2330472,8.86221472 C18.7187361,8.89613737 18.2142735,9.04058219 17.7579592,9.27913501 C17.3005506,9.51768783 16.8934788,9.85034863 16.5684779,10.2508547 C16.23144,10.6655865 15.9852272,11.1547292 15.8582909,11.6734174 C15.7346373,12.1745972 15.7455801,12.6703055 15.8199911,13.1758624 L15.7477687,13.2601219 C12.8741921,12.8322588 10.4919468,11.8047309 8.55835585,9.60085303 C8.47409636,9.50455648 8.42813665,9.50455648 8.36029135,9.60851298 C7.51441371,10.8767823 7.92476832,12.9143298 8.98074753,13.915595 C9.12190952,14.0490971 9.26744862,14.1825991 9.42393051,14.3040641 C9.36593373,14.3161011 8.66231235,14.2395016 8.0352905,13.915595 L7.90178846,13.9878174 C7.89412851,14.1256966 7.90616558,14.2515387 7.9258626,14.4003606 C8.08781589,15.6861384 8.97746469,16.8756196 10.1975857,17.3384996 C10.3420306,17.3997793 10.5017953,17.4533989 10.6582772,17.4796616 C10.3803303,17.5409413 10.0947235,17.5847124 9.29699415,17.5223385 C9.19850904,17.5026415 9.16020928,17.5529783 9.19850904,17.6481806 C9.79707964,19.2797505 11.0894231,19.7656104 12.05786,20.042463 C12.1869849,20.0643486 12.3161098,20.0643486 12.446329,20.0949884 L12.4233492,20.1179682 C12.1027254,20.6071109 10.9887494,20.9715058 10.4711555,21.1531561 C9.52788702,21.4825341 8.50254762,21.6302618 7.50565947,21.5328709 C7.34589474,21.5087968 7.31306637,21.5109854 7.26929522,21.5328709 L7.31525493,21.639016 C7.51660226,21.772518 7.72342099,21.8907002 7.93242827,22.0055995 C8.56492152,22.3404488 9.22477174,22.6074529 9.91526177,22.7978574 C13.4771398,23.7816142 17.4898608,23.0582958 20.1642786,20.4013865 C22.2652943,18.3145965 23.001744,15.4366428 23.001744,12.554312 C23.001744,12.4416012 23.1341518,12.3803216 23.2129398,12.3201363 C23.7600793,11.9097817 24.2010738,11.4184504 24.6092398,10.8691224 C24.700065,10.7465631 24.7011593,10.6371352 24.7011593,10.5911755 L24.7011593,10.5769499 L24.6289368,10.5769499"
                    id="Fill-104"
                    fill="#FFFFFE"
                  ></path>
                </g>
              </g>
            </g>
          </g>
        </g>
      </svg>